<svg xmlns="http://www.w3.org/2000/svg" viewBox="0 0 512 512" width="512" height="512">
  <defs>
    <linearGradient id="bg" x1="0%" y1="0%" x2="100%" y2="100%">
      <stop offset="0%" style="stop-color:#2563EB"/>
      <stop offset="100%" style="stop-color:#7DD3FC"/>
    </linearGradient>
  </defs>

  <!-- 背景 -->
  <rect x="0" y="0" width="512" height="512" rx="112" ry="112" fill="url(#bg)"/>

  <!-- 大きい吹き出し（中央配置） -->
  <path d="M 256 115
           C 355 115, 395 158, 395 225
           C 395 292, 355 335, 256 335
           C 228 335, 204 330, 184 321
           L 142 360
           C 136 364, 128 358, 132 352
           L 150 308
           C 132 288, 117 260, 117 225
           C 117 158, 157 115, 256 115 Z"
        fill="white" fill-opacity="0.95"/>

  <!-- 小さい吹き出し（右上、大きい吹き出しの横） -->
  <path d="M 350 95
           C 388 95, 408 114, 408 142
           C 408 170, 388 189, 350 189
           C 341 189, 333 187, 326 183
           L 312 197
           C 309 199, 306 197, 307 194
           L 314 179
           C 306 172, 302 160, 302 142
           C 302 114, 322 95, 350 95 Z"
        fill="white" fill-opacity="0.55"/>
</svg>
