<svg xmlns="http://www.w3.org/2000/svg" viewBox="0 0 512 512" width="512" height="512">
  <defs>
    <linearGradient id="bg" x1="0%" y1="0%" x2="100%" y2="100%">
      <stop offset="0%" style="stop-color:#2563EB"/>
      <stop offset="100%" style="stop-color:#7DD3FC"/>
    </linearGradient>
  </defs>

  <!-- 背景 -->
  <rect x="0" y="0" width="512" height="512" rx="112" ry="112" fill="url(#bg)"/>

  <!-- 大きい吹き出し（左寄り） -->
  <path d="M 230 100
           C 340 100, 390 148, 390 220
           C 390 292, 340 340, 230 340
           C 200 340, 174 334, 152 324
           L 105 368
           C 99 372, 91 366, 95 360
           L 116 312
           C 96 290, 82 258, 82 220
           C 82 148, 132 100, 230 100 Z"
        fill="white" fill-opacity="0.95"/>

  <!-- 小さい吹き出し（右上） -->
  <path d="M 340 80
           C 386 80, 410 102, 410 135
           C 410 168, 386 190, 340 190
           C 330 190, 320 188, 312 184
           L 296 200
           C 293 202, 289 200, 291 197
           L 298 180
           C 290 172, 284 160, 284 135
           C 284 102, 308 80, 340 80 Z"
        fill="white" fill-opacity="0.6"/>
</svg>
