<svg xmlns="http://www.w3.org/2000/svg" viewBox="0 0 512 512" width="512" height="512">
  <defs>
    <linearGradient id="bg" x1="0%" y1="0%" x2="100%" y2="100%">
      <stop offset="0%" style="stop-color:#2563EB"/>
      <stop offset="100%" style="stop-color:#7DD3FC"/>
    </linearGradient>
  </defs>

  <!-- 背景 -->
  <rect x="0" y="0" width="512" height="512" rx="112" ry="112" fill="url(#bg)"/>

  <!-- 大きい吹き出し（中央やや下寄せ） -->
  <path d="M 256 140
           C 355 140, 395 183, 395 250
           C 395 317, 355 360, 256 360
           C 228 360, 204 355, 184 346
           L 142 385
           C 136 389, 128 383, 132 377
           L 150 333
           C 132 313, 117 285, 117 250
           C 117 183, 157 140, 256 140 Z"
        fill="white" fill-opacity="0.95"/>

  <!-- 小さい吹き出し（右上） -->
  <path d="M 355 108
           C 393 108, 413 127, 413 155
           C 413 183, 393 202, 355 202
           C 346 202, 338 200, 331 196
           L 317 210
           C 314 212, 311 210, 312 207
           L 319 192
           C 311 185, 307 173, 307 155
           C 307 127, 327 108, 355 108 Z"
        fill="white" fill-opacity="0.55"/>
</svg>
